{"title":"Joker 2012 ScamRip (ICTV)","uid":7587109,"size":720248832,"categoryP":"video","categoryS":"movies","magnet":"?xt=urn:btih:ca7814c43b2aefdc4cc0e59431cbf5b43c044b26&amp;dn=Joker+2012+ScamRip+%28ICTV%29&amp;tr=udp%3A%2F%2Ftracker.openbittorrent.com%3A80&amp;tr=udp%3A%2F%2Fopen.demonii.com%3A1337&amp;tr=udp%3A%2F%2Ftracker.coppersurfer.tk%3A6969&amp;tr=udp%3A%2F%2Fexodus.desync.com%3A6969","seeders":0,"leechers":0,"uploader":"SJonam","files":1,"time":1346435307,"description":" &lt;a href=&quot;http://desibbrg.org/images/66952052392581364616.gif&quot; rel=&quot;nofollow&quot; target=&quot;_NEW&quot;&gt;http://desibbrg.org/images/66952052392581364616.gif&lt;/a&gt; &lt;a href=&quot;\nhttp://desibbrg.org/images/41977533695559322474.png&quot; rel=&quot;nofollow&quot; target=&quot;_NEW&quot;&gt;\nhttp://desibbrg.org/images/41977533695559322474.png&lt;/a&gt; &lt;a href=&quot;\nhttp://desibbrg.org/images/97622704139809372665.png&quot; rel=&quot;nofollow&quot; target=&quot;_NEW&quot;&gt;\nhttp://desibbrg.org/images/97622704139809372665.png&lt;/a&gt; &lt;a href=&quot;\nhttp://desibbrg.org/images/23037433838579019573.png&quot; rel=&quot;nofollow&quot; target=&quot;_NEW&quot;&gt;\nhttp://desibbrg.org/images/23037433838579019573.png&lt;/a&gt; &lt;a href=&quot;\nhttp://desibbrg.org/images/47899337718123042687.png&quot; rel=&quot;nofollow&quot; target=&quot;_NEW&quot;&gt;\nhttp://desibbrg.org/images/47899337718123042687.png&lt;/a&gt; &lt;a href=&quot;\nhttp://desibbrg.org/images/64239343052860314760.png&quot; rel=&quot;nofollow&quot; target=&quot;_NEW&quot;&gt;\nhttp://desibbrg.org/images/64239343052860314760.png&lt;/a&gt;\n\nMedia Info - \nGeneral\nComplete name                    : Joker (2012) Scam Rip - Team IcTv Exclsuive.mpg\nFormat                           : MPEG-PS\nFile size                        : 687 MiB\nDuration                         : 1h 28mn\nOverall bit rate                 : 1 087 Kbps\n\nVideo\nID                               : 224 (0xE0)\nFormat                           : MPEG Video\nFormat version                   : Version 2\nFormat profile                   : Main@Main\nFormat settings, BVOP            : Yes\nFormat settings, Matrix          : Default\nDuration                         : 1h 28mn\nBit rate mode                    : Variable\nBit rate                         : 938 Kbps\nNominal bit rate                 : 9 672 Kbps\nWidth                            : 352 pixels\nHeight                           : 288 pixels\nDisplay aspect ratio             : 4:3\nFrame rate                       : 25.000 fps\nStandard                         : PAL\nColor space                      : YUV\nChroma subsampling               : 4:2:0\nBit depth                        : 8 bits\nScan type                        : Progressive\nCompression mode                 : Lossy\nBits/(Pixel*Frame)               : 0.370\nStream size                      : 592 MiB (86%)\n\nAudio\nID                               : 192 (0xC0)\nFormat                           : MPEG Audio\nFormat version                   : Version 1\nFormat profile                   : Layer 2\nDuration                         : 1h 28mn\nBit rate mode                    : Constant\nBit rate                         : 128 Kbps\nChannel(s)                       : 2 channels\nSampling rate                    : 48.0 KHz\nCompression mode                 : Lossy\nStream size                      : 80.9 MiB (12%)\n\nRipper : pbhargav64\n\nSeeding 24x7... Extreme Seeding...\n\n\nEnjoy!\n","torrent":{"xt":"urn:btih:ca7814c43b2aefdc4cc0e59431cbf5b43c044b26","amp;dn":"Joker+2012+ScamRip+%28ICTV%29","amp;tr":["udp%3A%2F%2Ftracker.openbittorrent.com%3A80","udp%3A%2F%2Fopen.demonii.com%3A1337","udp%3A%2F%2Ftracker.coppersurfer.tk%3A6969","udp%3A%2F%2Fexodus.desync.com%3A6969"],"infoHash":"ca7814c43b2aefdc4cc0e59431cbf5b43c044b26","infoHashBuffer":{"type":"Buffer","data":[202,120,20,196,59,42,239,220,76,192,229,148,49,203,245,180,60,4,75,38]},"announce":[],"urlList":[]}}